<svg width="244" height="107" viewBox="0 0 244 107" fill="none" xmlns="http://www.w3.org/2000/svg">
<path d="M9.63218 8.0833C9.45411 7.87225 9.48084 7.5568 9.69189 7.37872L13.1312 4.47679C13.3422 4.29872 13.6577 4.32545 13.8358 4.5365C14.0139 4.74756 13.9871 5.06301 13.7761 5.24108L10.7189 7.82058L13.2984 10.8777C13.4765 11.0888 13.4497 11.4042 13.2387 11.5823C13.0276 11.7604 12.7122 11.7337 12.5341 11.5226L9.63218 8.0833ZM88.5196 73.3234C87.0304 62.655 82.064 47.6328 70.1464 34.6608C58.2381 21.699 39.3581 10.7493 9.97211 8.25908L10.0565 7.26265C39.6708 9.77227 58.7909 20.8227 70.8828 33.9843C82.9653 47.1358 87.999 62.3603 89.51 73.1851L88.5196 73.3234Z" fill="white"/>
<path d="M95.573 102.252C94.411 102.252 93.284 102.098 92.192 101.79C91.114 101.468 90.246 101.055 89.588 100.551L90.743 97.989C91.373 98.451 92.122 98.822 92.99 99.102C93.858 99.382 94.726 99.522 95.594 99.522C96.56 99.522 97.274 99.382 97.736 99.102C98.198 98.808 98.429 98.423 98.429 97.947C98.429 97.597 98.289 97.31 98.009 97.086C97.743 96.848 97.393 96.659 96.959 96.519C96.539 96.379 95.965 96.225 95.237 96.057C94.117 95.791 93.2 95.525 92.486 95.259C91.772 94.993 91.156 94.566 90.638 93.978C90.134 93.39 89.882 92.606 89.882 91.626C89.882 90.772 90.113 90.002 90.575 89.316C91.037 88.616 91.73 88.063 92.654 87.657C93.592 87.251 94.733 87.048 96.077 87.048C97.015 87.048 97.932 87.16 98.828 87.384C99.724 87.608 100.508 87.93 101.18 88.35L100.13 90.933C98.772 90.163 97.414 89.778 96.056 89.778C95.104 89.778 94.397 89.932 93.935 90.24C93.487 90.548 93.263 90.954 93.263 91.458C93.263 91.962 93.522 92.34 94.04 92.592C94.572 92.83 95.377 93.068 96.455 93.306C97.575 93.572 98.492 93.838 99.206 94.104C99.92 94.37 100.529 94.79 101.033 95.364C101.551 95.938 101.81 96.715 101.81 97.695C101.81 98.535 101.572 99.305 101.096 100.005C100.634 100.691 99.934 101.237 98.996 101.643C98.058 102.049 96.917 102.252 95.573 102.252ZM109.364 102.168C108.16 102.168 107.075 101.923 106.109 101.433C105.157 100.929 104.408 100.236 103.862 99.354C103.33 98.472 103.064 97.471 103.064 96.351C103.064 95.231 103.33 94.23 103.862 93.348C104.408 92.466 105.157 91.78 106.109 91.29C107.075 90.786 108.16 90.534 109.364 90.534C110.554 90.534 111.59 90.786 112.472 91.29C113.368 91.78 114.019 92.487 114.425 93.411L111.884 94.776C111.296 93.74 110.449 93.222 109.343 93.222C108.489 93.222 107.782 93.502 107.222 94.062C106.662 94.622 106.382 95.385 106.382 96.351C106.382 97.317 106.662 98.08 107.222 98.64C107.782 99.2 108.489 99.48 109.343 99.48C110.463 99.48 111.31 98.962 111.884 97.926L114.425 99.312C114.019 100.208 113.368 100.908 112.472 101.412C111.59 101.916 110.554 102.168 109.364 102.168ZM120.868 90.534C122.618 90.534 123.962 90.954 124.9 91.794C125.838 92.62 126.307 93.873 126.307 95.553V102H123.241V100.593C122.625 101.643 121.477 102.168 119.797 102.168C118.929 102.168 118.173 102.021 117.529 101.727C116.899 101.433 116.416 101.027 116.08 100.509C115.744 99.991 115.576 99.403 115.576 98.745C115.576 97.695 115.968 96.869 116.752 96.267C117.55 95.665 118.775 95.364 120.427 95.364H123.031C123.031 94.65 122.814 94.104 122.38 93.726C121.946 93.334 121.295 93.138 120.427 93.138C119.825 93.138 119.23 93.236 118.642 93.432C118.068 93.614 117.578 93.866 117.172 94.188L115.996 91.899C116.612 91.465 117.347 91.129 118.201 90.891C119.069 90.653 119.958 90.534 120.868 90.534ZM120.616 99.963C121.176 99.963 121.673 99.837 122.107 99.585C122.541 99.319 122.849 98.934 123.031 98.43V97.275H120.784C119.44 97.275 118.768 97.716 118.768 98.598C118.768 99.018 118.929 99.354 119.251 99.606C119.587 99.844 120.042 99.963 120.616 99.963ZM136.139 90.534C137.539 90.534 138.666 90.954 139.52 91.794C140.388 92.634 140.822 93.88 140.822 95.532V102H137.546V96.036C137.546 95.14 137.35 94.475 136.958 94.041C136.566 93.593 135.999 93.369 135.257 93.369C134.431 93.369 133.773 93.628 133.283 94.146C132.793 94.65 132.548 95.406 132.548 96.414V102H129.272V90.702H132.401V92.025C132.835 91.549 133.374 91.185 134.018 90.933C134.662 90.667 135.369 90.534 136.139 90.534ZM165.867 103.575C165.391 104.163 164.81 104.611 164.124 104.919C163.452 105.227 162.71 105.381 161.898 105.381C160.806 105.381 159.819 105.143 158.937 104.667C158.055 104.205 157.047 103.379 155.913 102.189C154.583 102.021 153.393 101.594 152.343 100.908C151.307 100.222 150.495 99.34 149.907 98.262C149.333 97.17 149.046 95.966 149.046 94.65C149.046 93.208 149.389 91.913 150.075 90.765C150.775 89.603 151.734 88.693 152.952 88.035C154.184 87.377 155.563 87.048 157.089 87.048C158.615 87.048 159.987 87.377 161.205 88.035C162.423 88.693 163.382 89.603 164.082 90.765C164.782 91.913 165.132 93.208 165.132 94.65C165.132 96.358 164.649 97.856 163.683 99.144C162.731 100.432 161.464 101.328 159.882 101.832C160.232 102.196 160.568 102.455 160.89 102.609C161.226 102.777 161.583 102.861 161.961 102.861C162.871 102.861 163.669 102.497 164.355 101.769L165.867 103.575ZM152.49 94.65C152.49 95.56 152.686 96.372 153.078 97.086C153.484 97.8 154.037 98.36 154.737 98.766C155.437 99.158 156.221 99.354 157.089 99.354C157.957 99.354 158.741 99.158 159.441 98.766C160.141 98.36 160.687 97.8 161.079 97.086C161.485 96.372 161.688 95.56 161.688 94.65C161.688 93.74 161.485 92.928 161.079 92.214C160.687 91.5 160.141 90.947 159.441 90.555C158.741 90.149 157.957 89.946 157.089 89.946C156.221 89.946 155.437 90.149 154.737 90.555C154.037 90.947 153.484 91.5 153.078 92.214C152.686 92.928 152.49 93.74 152.49 94.65ZM177.054 102L174.219 97.905H174.051H171.09V102H167.688V87.3H174.051C175.353 87.3 176.48 87.517 177.432 87.951C178.398 88.385 179.14 89.001 179.658 89.799C180.176 90.597 180.435 91.542 180.435 92.634C180.435 93.726 180.169 94.671 179.637 95.469C179.119 96.253 178.377 96.855 177.411 97.275L180.708 102H177.054ZM176.991 92.634C176.991 91.808 176.725 91.178 176.193 90.744C175.661 90.296 174.884 90.072 173.862 90.072H171.09V95.196H173.862C174.884 95.196 175.661 94.972 176.193 94.524C176.725 94.076 176.991 93.446 176.991 92.634ZM182.418 94.776H188.361V97.401H182.418V94.776ZM196.604 102.168C195.4 102.168 194.315 101.923 193.349 101.433C192.397 100.929 191.648 100.236 191.102 99.354C190.57 98.472 190.304 97.471 190.304 96.351C190.304 95.231 190.57 94.23 191.102 93.348C191.648 92.466 192.397 91.78 193.349 91.29C194.315 90.786 195.4 90.534 196.604 90.534C197.794 90.534 198.83 90.786 199.712 91.29C200.608 91.78 201.259 92.487 201.665 93.411L199.124 94.776C198.536 93.74 197.689 93.222 196.583 93.222C195.729 93.222 195.022 93.502 194.462 94.062C193.902 94.622 193.622 95.385 193.622 96.351C193.622 97.317 193.902 98.08 194.462 98.64C195.022 99.2 195.729 99.48 196.583 99.48C197.703 99.48 198.55 98.962 199.124 97.926L201.665 99.312C201.259 100.208 200.608 100.908 199.712 101.412C198.83 101.916 197.794 102.168 196.604 102.168ZM208.784 102.168C207.594 102.168 206.523 101.923 205.571 101.433C204.633 100.929 203.898 100.236 203.366 99.354C202.834 98.472 202.568 97.471 202.568 96.351C202.568 95.231 202.834 94.23 203.366 93.348C203.898 92.466 204.633 91.78 205.571 91.29C206.523 90.786 207.594 90.534 208.784 90.534C209.974 90.534 211.038 90.786 211.976 91.29C212.914 91.78 213.649 92.466 214.181 93.348C214.713 94.23 214.979 95.231 214.979 96.351C214.979 97.471 214.713 98.472 214.181 99.354C213.649 100.236 212.914 100.929 211.976 101.433C211.038 101.923 209.974 102.168 208.784 102.168ZM208.784 99.48C209.624 99.48 210.31 99.2 210.842 98.64C211.388 98.066 211.661 97.303 211.661 96.351C211.661 95.399 211.388 94.643 210.842 94.083C210.31 93.509 209.624 93.222 208.784 93.222C207.944 93.222 207.251 93.509 206.705 94.083C206.159 94.643 205.886 95.399 205.886 96.351C205.886 97.303 206.159 98.066 206.705 98.64C207.251 99.2 207.944 99.48 208.784 99.48ZM228.676 86.418V102H225.547V100.698C224.735 101.678 223.559 102.168 222.019 102.168C220.955 102.168 219.989 101.93 219.121 101.454C218.267 100.978 217.595 100.299 217.105 99.417C216.615 98.535 216.37 97.513 216.37 96.351C216.37 95.189 216.615 94.167 217.105 93.285C217.595 92.403 218.267 91.724 219.121 91.248C219.989 90.772 220.955 90.534 222.019 90.534C223.461 90.534 224.588 90.989 225.4 91.899V86.418H228.676ZM222.586 99.48C223.412 99.48 224.098 99.2 224.644 98.64C225.19 98.066 225.463 97.303 225.463 96.351C225.463 95.399 225.19 94.643 224.644 94.083C224.098 93.509 223.412 93.222 222.586 93.222C221.746 93.222 221.053 93.509 220.507 94.083C219.961 94.643 219.688 95.399 219.688 96.351C219.688 97.303 219.961 98.066 220.507 98.64C221.053 99.2 221.746 99.48 222.586 99.48ZM242.775 96.393C242.775 96.435 242.754 96.729 242.712 97.275H234.165C234.319 97.975 234.683 98.528 235.257 98.934C235.831 99.34 236.545 99.543 237.399 99.543C237.987 99.543 238.505 99.459 238.953 99.291C239.415 99.109 239.842 98.829 240.234 98.451L241.977 100.341C240.913 101.559 239.359 102.168 237.315 102.168C236.041 102.168 234.914 101.923 233.934 101.433C232.954 100.929 232.198 100.236 231.666 99.354C231.134 98.472 230.868 97.471 230.868 96.351C230.868 95.245 231.127 94.251 231.645 93.369C232.177 92.473 232.898 91.78 233.808 91.29C234.732 90.786 235.761 90.534 236.895 90.534C238.001 90.534 239.002 90.772 239.898 91.248C240.794 91.724 241.494 92.41 241.998 93.306C242.516 94.188 242.775 95.217 242.775 96.393ZM236.916 93.012C236.174 93.012 235.551 93.222 235.047 93.642C234.543 94.062 234.235 94.636 234.123 95.364H239.688C239.576 94.65 239.268 94.083 238.764 93.663C238.26 93.229 237.644 93.012 236.916 93.012Z" fill="white"/>
</svg>
